<?xml version="1.0" encoding="UTF-8"?>
<svg id="_레이어_2" data-name="레이어 2" xmlns="http://www.w3.org/2000/svg" xmlns:xlink="http://www.w3.org/1999/xlink" viewBox="0 0 492.25 80.45">
  <defs>
    <style>
      .cls-1 {
        clip-path: url(#clippath);
      }

      .cls-2, .cls-3 {
        fill: #72d8e3;
      }

      .cls-4 {
        clip-path: url(#clippath-1);
      }

      .cls-5 {
        clip-path: url(#clippath-4);
      }

      .cls-6 {
        clip-path: url(#clippath-3);
      }

      .cls-7 {
        clip-path: url(#clippath-2);
      }

      .cls-8 {
        clip-path: url(#clippath-5);
      }

      .cls-9 {
        fill: #3ecfda;
      }

      .cls-9, .cls-3 {
        stroke-width: 0px;
      }
    </style>
    <clipPath id="clippath">
      <path class="cls-3" d="m244.67,69.48c-3.03-3.17-8.53-14.62-8.53-25.59,0-8.62-.8-23-18.28-29.24-17.06-6.09-28.02,6.09-28.02,6.09,0,0-3.26,2.91-6.23,9.3l-8.24,1.77c-1.38.3-1.84,1.57-.84,2.34l6.04,4.66c-1.02,4.15-1.7,9.08-1.7,14.83,0,23.15,18.23,26.8,35.33,26.8,12.18,0,25.43-5.68,29.24-8.53,1.21-.91,2.26-1.34,1.22-2.44Zm-48.73-36.55c-1.68,0-2.44-1.36-2.44-3.05s.75-3.05,2.44-3.05,2.44,1.97,2.44,3.66-.75,2.44-2.44,2.44Zm26.91,12.13c-.11,2.49-4.98,4.93-4.98,4.93,0,0,3.66-1.22,3.66,1.22s-6.09,4.87-8.53,4.87-7.29-.6-8.53-2.44c-2.28-3.37,0-13.4,3.66-15.84s14.51-1.19,15.17,1.22c.67,2.44-4.21,4.87-4.21,4.87,0,0,3.87-1.33,3.76,1.16Z"/>
    </clipPath>
    <clipPath id="clippath-1">
      <path class="cls-3" d="m84.1,27.95c.42,4.37.84,8.98,1.26,13.85.42,4.87.82,9.55,1.2,14.04.38,4.49.69,8.6.94,12.34.12,1.8.22,3.39.3,4.79.15,2.56-1.48,4.92-3.96,5.58-.1.03-.21.05-.31.08-1.55.38-3.55.57-5.98.57-3.19,0-5.88-.55-8.06-1.64-2.18-1.09-3.36-3.23-3.52-6.42-.5-9.15-.82-17.37-.94-24.68-.13-7.3-.31-13.43-.57-18.38h-.63c-.84,3.27-2.06,7.39-3.65,12.34-1.46,4.53-3.2,10.22-5.22,17.08-.42,1.43-1.38,2.66-2.71,3.32-.63.31-1.32.58-2.07.82-1.72.55-3.71.82-5.98.82-3.02,0-5.52-.38-7.49-1.13-1.97-.76-3.25-2.06-3.84-3.9-2.35-7.38-4.28-13.36-5.79-17.94-1.51-4.57-2.69-8.58-3.53-12.02h-.63c-.25,4.95-.44,9.46-.57,13.53-.13,4.07-.21,8.04-.25,11.9-.04,3.86-.13,7.76-.25,11.71-.09,2.82-.21,5.86-.37,9.12-.12,2.52-1.99,4.63-4.48,5.05h0c-1.76.29-3.53.44-5.29.44-3.69,0-6.57-.59-8.62-1.76-2.06-1.17-3.08-3.31-3.08-6.42L4.62,13.72c.09-1.55-5.04-5.04-3.78-7.55,0,0,6.29-2.52,7.22-2.9,2.4-.98,5.45-1.89,9.57-1.89,4.45,0,7.93.69,10.45,2.08s4.36,3.63,5.54,6.74c.76,2.01,1.57,4.32,2.46,6.92.88,2.6,1.76,5.29,2.64,8.06.88,2.77,1.74,5.52,2.58,8.25.84,2.73,1.59,5.18,2.27,7.36h.63c2.01-7.05,4.03-13.87,6.04-20.46,1.69-5.52,3.26-10.3,4.71-14.32.56-1.54,1.76-2.76,3.31-3.28.72-.24,1.51-.46,2.36-.66,1.97-.46,4.17-.69,6.61-.69,4.11,0,7.47.61,10.07,1.83,1.43.67,9.15,4.22,9.15,5.48s-3.97,4.02-3.78,5.04l1.43,14.23Z"/>
    </clipPath>
    <clipPath id="clippath-2">
      <path class="cls-3" d="m164.52,47.84c0,5.2-.8,9.84-2.39,13.91-1.6,4.07-3.84,7.49-6.74,10.26-2.9,2.77-6.36,4.87-10.39,6.29-4.03,1.43-8.52,2.14-13.47,2.14s-9.44-.76-13.47-2.27c-4.03-1.51-7.49-3.67-10.39-6.48-2.9-2.81-5.14-6.23-6.74-10.26-1.6-4.03-2.39-8.56-2.39-13.6s.8-9.44,2.39-13.47c1.59-4.03,3.84-7.45,6.74-10.26,2.9-2.81,6.36-4.97,10.39-6.48,4.03-1.51,8.52-2.27,13.47-2.27s9.44.78,13.47,2.33c4.03,1.55,7.49,3.74,10.39,6.55,2.9,2.81,5.14,6.23,6.74,10.26,1.59,4.03,2.39,8.48,2.39,13.35Zm-44.06,0c0,5.12.99,9.04,2.96,11.77,1.97,2.73,4.72,4.09,8.25,4.09s6.23-1.38,8.12-4.15,2.83-6.67,2.83-11.71-.97-8.92-2.9-11.65c-1.93-2.73-4.66-4.09-8.18-4.09s-6.25,1.36-8.18,4.09c-1.93,2.73-2.9,6.61-2.9,11.65Z"/>
    </clipPath>
    <clipPath id="clippath-3">
      <path class="cls-3" d="m287.94,80.45c-1.43,0-3.11-.04-5.04-.13-1.93-.08-3.92-.25-5.98-.5-2.06-.25-4.09-.57-6.11-.94-2.01-.38-3.86-.9-5.54-1.57-4.62-1.76-6.92-4.83-6.92-9.19V14.98c0-1.76-4.46-5.04-4.46-7.55,0-1.36,8.19-3.94,9.87-4.53,2.85-1,6.42-1.74,10.7-2.2,4.28-.46,8.69-.69,13.22-.69,10.74,0,19.01,1.81,24.8,5.41,5.79,3.61,8.69,9.19,8.69,16.74,0,3.78-1.09,7.03-3.27,9.76-1.95,2.43-4.49,4.28-7.64,5.55-.38.15-.36.67.02.8,3.67,1.23,6.78,3.25,9.32,6.05,2.81,3.11,4.22,7.01,4.22,11.71,0,8.31-3.08,14.46-9.25,18.44s-15.04,5.98-26.63,5.98Zm-8.18-50.02c0,.86.69,1.55,1.55,1.55h7.64c3.61,0,6.23-.67,7.87-2.01,1.64-1.34,2.46-3.31,2.46-5.92,0-2.27-.94-4.07-2.83-5.41-1.89-1.34-4.72-2.01-8.5-2.01-1.26,0-2.71.04-4.34.13-.93.05-1.75.11-2.45.18-.79.08-1.39.75-1.39,1.54v11.95Zm0,31.04c0,.74.51,1.38,1.24,1.52.94.18,2.04.32,3.29.4,1.84.13,3.61.19,5.29.19,3.36,0,6.15-.69,8.37-2.08,2.22-1.38,3.34-3.54,3.34-6.48,0-2.77-.92-4.74-2.77-5.92-1.85-1.17-4.66-1.76-8.43-1.76h-8.77c-.86,0-1.55.69-1.55,1.55v12.58Z"/>
    </clipPath>
    <clipPath id="clippath-4">
      <path class="cls-3" d="m364.02,15.36c4.53,0,8.67.46,12.4,1.38,3.73.92,6.92,2.33,9.57,4.22s4.68,4.28,6.11,7.18c1.43,2.9,2.14,6.32,1.55,6.48v28.2c.59,5.96,6.25,4.91,5.04,6.29-1.22,1.38-7.1,4.74-10.07,6.29-5.64,2.95-13.68,5.04-23.58,5.04-4.45,0-8.46-.42-12.02-1.26-3.57-.84-6.63-2.1-9.19-3.78-2.56-1.68-4.53-3.82-5.92-6.42-1.38-2.6-2.08-5.62-2.08-9.06,0-5.79,1.72-10.24,5.16-13.34,3.44-3.1,8.77-5.04,15.99-5.79l16.49-1.76v-.88c0-2.43-1.07-4.17-3.21-5.22-2.14-1.05-5.22-1.57-9.25-1.57-3.19,0-6.29.34-9.32,1.01-2.36.53-4.54,1.15-6.54,1.88-1.21.44-2.56,0-3.33-1.03-.39-.52-.75-1.12-1.08-1.8-.76-1.55-1.13-3.17-1.13-4.85,0-2.18.52-3.92,1.57-5.22,1.05-1.3,2.66-2.41,4.85-3.34,2.43-.92,5.31-1.59,8.62-2.01,3.31-.42,6.44-.63,9.38-.63Zm1.01,49.48c1.43,0,3-.15,4.72-.44.63-.11,1.2-.23,1.71-.36,1.27-.34,2.13-1.51,2.13-2.83v-4.89c0-1.72-1.47-3.07-3.18-2.92l-5.89.49c-2.35.17-4.28.67-5.79,1.51-1.51.84-2.27,2.1-2.27,3.78s.65,3.04,1.95,4.09c1.3,1.05,3.5,1.57,6.61,1.57Z"/>
    </clipPath>
    <clipPath id="clippath-5">
      <path class="cls-3" d="m435.83,13.85c3.03,0,6,.48,8.92,1.45,2.08.69,3.97,1.63,5.66,2.81,1.27.89,2.86.82,4.16,0,1.62-1.01,3.38-1.88,5.25-2.62,2.77-1.09,6.11-1.64,10.03-1.64,2.81,0,5.56.42,8.26,1.26,2.7.84,5.1,2.16,7.2,3.97,2.11,1.81,3.79,4.2,5.04,7.18,1.26,2.98,1.88,6.61,1.88,10.89v35.89c0,2.26-1.46,4.19-3.43,4.51-.02,0-.04,0-.06,0-1.59.25-3.23.38-4.93.38s-3.09-.13-4.38-.38c-1.29-.25-2.38-.76-3.27-1.51-.89-.75-1.57-1.78-2.05-3.08-.48-1.3-.72-3-.72-5.1v-30.09c0-2.52-.63-4.34-1.88-5.48-1.26-1.13-2.96-1.7-5.1-1.7-1.04,0-2.14.27-3.33.82-1.18.55-2.07,1.11-2.66,1.7.07.34.11.65.11.94v38.96c0,2.26-1.46,4.19-3.43,4.51-.06,0-.12.02-.17.03-1.59.25-3.2.38-4.82.38s-3.09-.13-4.38-.38c-1.29-.25-2.38-.76-3.27-1.51-.89-.75-1.57-1.78-2.05-3.08-.48-1.3-.72-3-.72-5.1v-30.09c0-2.52-.68-4.34-2.05-5.48-1.37-1.13-3.01-1.7-4.93-1.7-1.33,0-2.48.23-3.44.69,0,0-.02,0-.03.01-1.47.71-2.41,2.36-2.41,4.18v37.56c0,2.26-1.46,4.19-3.43,4.51-.02,0-.04,0-.06.01-1.59.25-3.23.38-4.93.38s-3.09-.13-4.38-.38c-1.29-.25-2.38-.76-3.27-1.51-.89-.75-1.57-1.78-2.05-3.08-.48-1.3-.72-3-.72-5.1V29.84c0-2.27.42-4.07,1.27-5.41.85-1.34,2.01-2.6,3.49-3.78,2.51-2.01,5.63-3.65,9.37-4.91,3.73-1.26,7.63-1.89,11.69-1.89Z"/>
    </clipPath>
  </defs>
  <g id="_레이어_2-2" data-name="레이어 2">
    <g id="_로고sky" data-name="로고sky">
      <g>
        <path class="cls-2" d="m244.67,69.48c-3.03-3.17-8.53-14.62-8.53-25.59,0-8.62-.8-23-18.28-29.24-17.06-6.09-28.02,6.09-28.02,6.09,0,0-3.26,2.91-6.23,9.3l-8.24,1.77c-1.38.3-1.84,1.57-.84,2.34l6.04,4.66c-1.02,4.15-1.7,9.08-1.7,14.83,0,23.15,18.23,26.8,35.33,26.8,12.18,0,25.43-5.68,29.24-8.53,1.21-.91,2.26-1.34,1.22-2.44Zm-48.73-36.55c-1.68,0-2.44-1.36-2.44-3.05s.75-3.05,2.44-3.05,2.44,1.97,2.44,3.66-.75,2.44-2.44,2.44Zm26.91,12.13c-.11,2.49-4.98,4.93-4.98,4.93,0,0,3.66-1.22,3.66,1.22s-6.09,4.87-8.53,4.87-7.29-.6-8.53-2.44c-2.28-3.37,0-13.4,3.66-15.84s14.51-1.19,15.17,1.22c.67,2.44-4.21,4.87-4.21,4.87,0,0,3.87-1.33,3.76,1.16Z"/>
        <g class="cls-1">
          <path class="cls-9" d="m176.79,59.11s4.46-12.11,13.46-7.11,11,16,15,19,21.65,9.26,29.83,5.13,0,0,0,0c0,0-10.83,7.87-26.83,7.87s-23.92-4.78-31.46-24.89Z"/>
        </g>
      </g>
      <g>
        <path class="cls-2" d="m84.1,27.95c.42,4.37.84,8.98,1.26,13.85.42,4.87.82,9.55,1.2,14.04.38,4.49.69,8.6.94,12.34.12,1.8.22,3.39.3,4.79.15,2.56-1.48,4.92-3.96,5.58-.1.03-.21.05-.31.08-1.55.38-3.55.57-5.98.57-3.19,0-5.88-.55-8.06-1.64-2.18-1.09-3.36-3.23-3.52-6.42-.5-9.15-.82-17.37-.94-24.68-.13-7.3-.31-13.43-.57-18.38h-.63c-.84,3.27-2.06,7.39-3.65,12.34-1.46,4.53-3.2,10.22-5.22,17.08-.42,1.43-1.38,2.66-2.71,3.32-.63.31-1.32.58-2.07.82-1.72.55-3.71.82-5.98.82-3.02,0-5.52-.38-7.49-1.13-1.97-.76-3.25-2.06-3.84-3.9-2.35-7.38-4.28-13.36-5.79-17.94-1.51-4.57-2.69-8.58-3.53-12.02h-.63c-.25,4.95-.44,9.46-.57,13.53-.13,4.07-.21,8.04-.25,11.9-.04,3.86-.13,7.76-.25,11.71-.09,2.82-.21,5.86-.37,9.12-.12,2.52-1.99,4.63-4.48,5.05h0c-1.76.29-3.53.44-5.29.44-3.69,0-6.57-.59-8.62-1.76-2.06-1.17-3.08-3.31-3.08-6.42L4.62,13.72c.09-1.55-5.04-5.04-3.78-7.55,0,0,6.29-2.52,7.22-2.9,2.4-.98,5.45-1.89,9.57-1.89,4.45,0,7.93.69,10.45,2.08s4.36,3.63,5.54,6.74c.76,2.01,1.57,4.32,2.46,6.92.88,2.6,1.76,5.29,2.64,8.06.88,2.77,1.74,5.52,2.58,8.25.84,2.73,1.59,5.18,2.27,7.36h.63c2.01-7.05,4.03-13.87,6.04-20.46,1.69-5.52,3.26-10.3,4.71-14.32.56-1.54,1.76-2.76,3.31-3.28.72-.24,1.51-.46,2.36-.66,1.97-.46,4.17-.69,6.61-.69,4.11,0,7.47.61,10.07,1.83,1.43.67,9.15,4.22,9.15,5.48s-3.97,4.02-3.78,5.04l1.43,14.23Z"/>
        <g class="cls-4">
          <path class="cls-9" d="m-2.72,47.9s.72,9.32,11.85,11.21,16.78-5.73,16.78-5.73l-1.48,24.55-17.17,7.07-12.94-7.07,2.96-30.03Z"/>
          <path class="cls-9" d="m62.43,59.11s21.46,4.8,27.64-3.65l2.71,22.47s-14.42,10.44-23.47,5.26-6.88-24.08-6.88-24.08Z"/>
        </g>
      </g>
      <g>
        <path class="cls-2" d="m164.52,47.84c0,5.2-.8,9.84-2.39,13.91-1.6,4.07-3.84,7.49-6.74,10.26-2.9,2.77-6.36,4.87-10.39,6.29-4.03,1.43-8.52,2.14-13.47,2.14s-9.44-.76-13.47-2.27c-4.03-1.51-7.49-3.67-10.39-6.48-2.9-2.81-5.14-6.23-6.74-10.26-1.6-4.03-2.39-8.56-2.39-13.6s.8-9.44,2.39-13.47c1.59-4.03,3.84-7.45,6.74-10.26,2.9-2.81,6.36-4.97,10.39-6.48,4.03-1.51,8.52-2.27,13.47-2.27s9.44.78,13.47,2.33c4.03,1.55,7.49,3.74,10.39,6.55,2.9,2.81,5.14,6.23,6.74,10.26,1.59,4.03,2.39,8.48,2.39,13.35Zm-44.06,0c0,5.12.99,9.04,2.96,11.77,1.97,2.73,4.72,4.09,8.25,4.09s6.23-1.38,8.12-4.15,2.83-6.67,2.83-11.71-.97-8.92-2.9-11.65c-1.93-2.73-4.66-4.09-8.18-4.09s-6.25,1.36-8.18,4.09c-1.93,2.73-2.9,6.61-2.9,11.65Z"/>
        <g class="cls-7">
          <path class="cls-9" d="m98.25,59s11,12,33,12c19.03,0,35.82-14.92,35.82-14.92l-10.82,20.92-23,10-29-10-6-15"/>
        </g>
      </g>
      <g>
        <path class="cls-2" d="m287.94,80.45c-1.43,0-3.11-.04-5.04-.13-1.93-.08-3.92-.25-5.98-.5-2.06-.25-4.09-.57-6.11-.94-2.01-.38-3.86-.9-5.54-1.57-4.62-1.76-6.92-4.83-6.92-9.19V14.98c0-1.76-4.46-5.04-4.46-7.55,0-1.36,8.19-3.94,9.87-4.53,2.85-1,6.42-1.74,10.7-2.2,4.28-.46,8.69-.69,13.22-.69,10.74,0,19.01,1.81,24.8,5.41,5.79,3.61,8.69,9.19,8.69,16.74,0,3.78-1.09,7.03-3.27,9.76-1.95,2.43-4.49,4.28-7.64,5.55-.38.15-.36.67.02.8,3.67,1.23,6.78,3.25,9.32,6.05,2.81,3.11,4.22,7.01,4.22,11.71,0,8.31-3.08,14.46-9.25,18.44s-15.04,5.98-26.63,5.98Zm-8.18-50.02c0,.86.69,1.55,1.55,1.55h7.64c3.61,0,6.23-.67,7.87-2.01,1.64-1.34,2.46-3.31,2.46-5.92,0-2.27-.94-4.07-2.83-5.41-1.89-1.34-4.72-2.01-8.5-2.01-1.26,0-2.71.04-4.34.13-.93.05-1.75.11-2.45.18-.79.08-1.39.75-1.39,1.54v11.95Zm0,31.04c0,.74.51,1.38,1.24,1.52.94.18,2.04.32,3.29.4,1.84.13,3.61.19,5.29.19,3.36,0,6.15-.69,8.37-2.08,2.22-1.38,3.34-3.54,3.34-6.48,0-2.77-.92-4.74-2.77-5.92-1.85-1.17-4.66-1.76-8.43-1.76h-8.77c-.86,0-1.55.69-1.55,1.55v12.58Z"/>
        <g class="cls-6">
          <path class="cls-9" d="m255.25,72s25.06,5.26,46.03-.87,22.54-23.79,22.54-23.79l3,17.5-17.5,19.7-41.06.46-13-13Z"/>
        </g>
      </g>
      <g>
        <path class="cls-2" d="m364.02,15.36c4.53,0,8.67.46,12.4,1.38,3.73.92,6.92,2.33,9.57,4.22s4.68,4.28,6.11,7.18c1.43,2.9,2.14,6.32,1.55,6.48v28.2c.59,5.96,6.25,4.91,5.04,6.29-1.22,1.38-7.1,4.74-10.07,6.29-5.64,2.95-13.68,5.04-23.58,5.04-4.45,0-8.46-.42-12.02-1.26-3.57-.84-6.63-2.1-9.19-3.78-2.56-1.68-4.53-3.82-5.92-6.42-1.38-2.6-2.08-5.62-2.08-9.06,0-5.79,1.72-10.24,5.16-13.34,3.44-3.1,8.77-5.04,15.99-5.79l16.49-1.76v-.88c0-2.43-1.07-4.17-3.21-5.22-2.14-1.05-5.22-1.57-9.25-1.57-3.19,0-6.29.34-9.32,1.01-2.36.53-4.54,1.15-6.54,1.88-1.21.44-2.56,0-3.33-1.03-.39-.52-.75-1.12-1.08-1.8-.76-1.55-1.13-3.17-1.13-4.85,0-2.18.52-3.92,1.57-5.22,1.05-1.3,2.66-2.41,4.85-3.34,2.43-.92,5.31-1.59,8.62-2.01,3.31-.42,6.44-.63,9.38-.63Zm1.01,49.48c1.43,0,3-.15,4.72-.44.63-.11,1.2-.23,1.71-.36,1.27-.34,2.13-1.51,2.13-2.83v-4.89c0-1.72-1.47-3.07-3.18-2.92l-5.89.49c-2.35.17-4.28.67-5.79,1.51-1.51.84-2.27,2.1-2.27,3.78s.65,3.04,1.95,4.09c1.3,1.05,3.5,1.57,6.61,1.57Z"/>
        <g class="cls-5">
          <path class="cls-9" d="m334.5,56.08s6.75,13.92,15.75,16.92,24,3,32,0,16.59-8.16,16.59-8.16l1.94,5.92s-23.99,14.03-35.76,13.14-25.65-4.47-29.21-10.18-1.31-17.63-1.31-17.63Z"/>
        </g>
      </g>
      <g>
        <path class="cls-2" d="m435.83,13.85c3.03,0,6,.48,8.92,1.45,2.08.69,3.97,1.63,5.66,2.81,1.27.89,2.86.82,4.16,0,1.62-1.01,3.38-1.88,5.25-2.62,2.77-1.09,6.11-1.64,10.03-1.64,2.81,0,5.56.42,8.26,1.26,2.7.84,5.1,2.16,7.2,3.97,2.11,1.81,3.79,4.2,5.04,7.18,1.26,2.98,1.88,6.61,1.88,10.89v35.89c0,2.26-1.46,4.19-3.43,4.51-.02,0-.04,0-.06,0-1.59.25-3.23.38-4.93.38s-3.09-.13-4.38-.38c-1.29-.25-2.38-.76-3.27-1.51-.89-.75-1.57-1.78-2.05-3.08-.48-1.3-.72-3-.72-5.1v-30.09c0-2.52-.63-4.34-1.88-5.48-1.26-1.13-2.96-1.7-5.1-1.7-1.04,0-2.14.27-3.33.82-1.18.55-2.07,1.11-2.66,1.7.07.34.11.65.11.94v38.96c0,2.26-1.46,4.19-3.43,4.51-.06,0-.12.02-.17.03-1.59.25-3.2.38-4.82.38s-3.09-.13-4.38-.38c-1.29-.25-2.38-.76-3.27-1.51-.89-.75-1.57-1.78-2.05-3.08-.48-1.3-.72-3-.72-5.1v-30.09c0-2.52-.68-4.34-2.05-5.48-1.37-1.13-3.01-1.7-4.93-1.7-1.33,0-2.48.23-3.44.69,0,0-.02,0-.03.01-1.47.71-2.41,2.36-2.41,4.18v37.56c0,2.26-1.46,4.19-3.43,4.51-.02,0-.04,0-.06.01-1.59.25-3.23.38-4.93.38s-3.09-.13-4.38-.38c-1.29-.25-2.38-.76-3.27-1.51-.89-.75-1.57-1.78-2.05-3.08-.48-1.3-.72-3-.72-5.1V29.84c0-2.27.42-4.07,1.27-5.41.85-1.34,2.01-2.6,3.49-3.78,2.51-2.01,5.63-3.65,9.37-4.91,3.73-1.26,7.63-1.89,11.69-1.89Z"/>
        <g class="cls-8">
          <path class="cls-9" d="m410.01,63.58s1.25,6.42,9.25,6.42,9.6-7.83,9.6-7.83l12.86-.58s.3,5.57,9.42,5.49,9.42-6.93,9.42-6.93l12.86.58s.84,6.27,8.84,6.27,10-7.89,10-7.89l4,15.89-10.68,5.45-74.22-1.26-3.1-10.19,1.75-5.42"/>
        </g>
      </g>
    </g>
  </g>
</svg>