<svg width="522" height="524" viewBox="0 0 522 524" fill="none" xmlns="http://www.w3.org/2000/svg">
<g filter="url(#filter0_d_3147_317)">
<path d="M260.934 520.998C405.043 520.998 521.867 404.369 521.867 260.499C521.867 116.629 405.043 0 260.934 0C116.824 0 0 116.629 0 260.499C0 404.369 116.824 520.998 260.934 520.998Z" fill="#F0AA60"/>
</g>
<path d="M260.934 503.285C395.244 503.285 504.124 394.587 504.124 260.5C504.124 126.413 395.244 17.7148 260.934 17.7148C126.624 17.7148 17.7437 126.413 17.7437 260.5C17.7437 394.587 126.624 503.285 260.934 503.285Z" fill="#F9BD7D"/>
<path d="M260.934 454.159C368.067 454.159 454.916 367.455 454.916 260.5C454.916 153.546 368.067 66.8418 260.934 66.8418C153.801 66.8418 66.9526 153.546 66.9526 260.5C66.9526 367.455 153.801 454.159 260.934 454.159Z" fill="white"/>
<path d="M371.332 332.323C361.719 322.298 344.317 286.101 344.317 251.442C344.317 224.216 341.778 178.735 286.465 159.027C232.464 139.775 197.747 178.279 197.747 178.279C197.747 178.279 187.421 187.478 178.035 207.67L151.962 213.28C147.597 214.22 146.142 218.236 149.28 220.656L168.393 235.38C165.17 248.509 163.03 264.059 163.03 282.257C163.03 355.42 220.768 366.982 274.912 366.982C313.48 366.982 355.443 349.04 367.481 340.013C371.304 337.136 374.641 335.769 371.332 332.323ZM217.031 216.783C211.697 216.783 209.329 212.483 209.329 207.157C209.329 201.831 211.725 197.531 217.031 197.531C222.337 197.531 224.733 203.768 224.733 209.094C224.733 214.419 222.337 216.783 217.031 216.783ZM302.24 255.116C301.898 263.005 286.465 270.694 286.465 270.694C286.465 270.694 298.047 266.849 298.047 274.539C298.047 282.228 278.763 289.946 271.032 289.946C263.302 289.946 247.954 288.038 244.018 282.257C236.8 271.634 244.018 239.88 255.599 232.19C267.181 224.501 301.556 228.431 303.638 236.035C305.749 243.724 290.316 251.442 290.316 251.442C290.316 251.442 302.583 247.256 302.24 255.116Z" fill="#F9BD7D"/>
<defs>
<filter id="filter0_d_3147_317" x="0" y="0" width="521.867" height="523.998" filterUnits="userSpaceOnUse" color-interpolation-filters="sRGB">
<feFlood flood-opacity="0" result="BackgroundImageFix"/>
<feColorMatrix in="SourceAlpha" type="matrix" values="0 0 0 0 0 0 0 0 0 0 0 0 0 0 0 0 0 0 127 0" result="hardAlpha"/>
<feOffset dy="3"/>
<feColorMatrix type="matrix" values="0 0 0 0 0.576471 0 0 0 0 0.639216 0 0 0 0 0.686275 0 0 0 1 0"/>
<feBlend mode="normal" in2="BackgroundImageFix" result="effect1_dropShadow_3147_317"/>
<feBlend mode="normal" in="SourceGraphic" in2="effect1_dropShadow_3147_317" result="shape"/>
</filter>
</defs>
</svg>
